HIERARCHY
ROOT Hips
{
  OFFSET 43.0842 91.1655 101.099
  CHANNELS 6 Xposition Yposition Zposition Zrotation Xrotation Yrotation
  JOINT LeftUpLeg
  {
    OFFSET 8.64259 1.95398 -2.38835
    CHANNELS 3 Zrotation Xrotation Yrotation
    JOINT LeftLeg
    {
      OFFSET 43.7702 0 0
      CHANNELS 3 Zrotation Xrotation Yrotation
      JOINT LeftFoot
      {
        OFFSET 40.6238 0 0
        CHANNELS 3 Zrotation Xrotation Yrotation
        JOINT LeftToeBase
        {
          OFFSET 12.7242 0 0
          CHANNELS 3 Zrotation Xrotation Yrotation
          End Site
          {
            OFFSET 0 0 0
          }
        }
      }
    }
  }
  JOINT RightUpLeg
  {
    OFFSET -8.2249 1.95398 -2.59336
    CHANNELS 3 Zrotation Xrotation Yrotation
    JOINT RightLeg
    {
      OFFSET 43.5653 0 0
      CHANNELS 3 Zrotation Xrotation Yrotation
      JOINT RightFoot
      {
        OFFSET 40.6238 0 0
        CHANNELS 3 Zrotation Xrotation Yrotation
        JOINT RightToeBase
        {
          OFFSET 12.7242 0 0
          CHANNELS 3 Zrotation Xrotation Yrotation
          End Site
          {
            OFFSET 0 0 0
          }
        }
      }
    }
  }
  JOINT Spine
  {
    OFFSET 0.165834 0.87714 6.61349
    CHANNELS 3 Zrotation Xrotation Yrotation
    JOINT Spine1
    {
      OFFSET 7.38963 1.71661e-005 0
      CHANNELS 3 Zrotation Xrotation Yrotation
      JOINT Spine2
      {
        OFFSET 11.9445 1.14441e-005 0
        CHANNELS 3 Zrotation Xrotation Yrotation
        JOINT Spine3
        {
          OFFSET 14.7254 4.19617e-005 0
          CHANNELS 3 Zrotation Xrotation Yrotation
          JOINT Spine4
          {
            OFFSET 10.9679 0 0
            CHANNELS 3 Zrotation Xrotation Yrotation
            JOINT RightShoulder
            {
              OFFSET 2.46616 -1.6653 3.69651
              CHANNELS 3 Zrotation Xrotation Yrotation
              JOINT RightArm
              {
                OFFSET 13.0012 0 0
                CHANNELS 3 Zrotation Xrotation Yrotation
                JOINT RightForeArm
                {
                  OFFSET 28.7848 1.52588e-005 0
                  CHANNELS 3 Zrotation Xrotation Yrotation
                  JOINT RightHand
                  {
                    OFFSET 26.5688 1.52588e-005 0
                    CHANNELS 3 Zrotation Xrotation Yrotation
                    End Site
                    {
                      OFFSET 0 0 0
                    }
                  }
                }
              }
            }
            JOINT LeftShoulder
            {
              OFFSET 2.38034 -1.29275 -3.7523
              CHANNELS 3 Zrotation Xrotation Yrotation
              JOINT LeftArm
              {
                OFFSET 16.3182 6.10351e-005 0
                CHANNELS 3 Zrotation Xrotation Yrotation
                JOINT LeftForeArm
                {
                  OFFSET 27.0901 0 0
                  CHANNELS 3 Zrotation Xrotation Yrotation
                  JOINT LeftHand
                  {
                    OFFSET 24.5451 1.52588e-005 0
                    CHANNELS 3 Zrotation Xrotation Yrotation
                    End Site
                    {
                      OFFSET 0 0 0
                    }
                  }
                }
              }
            }
            JOINT Neck
            {
              OFFSET 5.0226 -0.0266342 0
              CHANNELS 3 Zrotation Xrotation Yrotation
              JOINT Head
              {
                OFFSET 6.69364 2.86102e-005 0
                CHANNELS 3 Zrotation Xrotation Yrotation
                End Site
                {
                  OFFSET 0 0 0
                }
              }
            }
          }
        }
      }
    }
  }
}
MOTION
Frames:	6
Frame Time:	0.0333333
28.3976 89.9222 101.095 95.3695 -31.3562 94.1131 -168.406 8.024 99.9322 -36.1958 21.8044 -2.96035 64.7677 6.0715 20.9376 36.5262 5.99037 7.76846 172.361 16.2499 80.7474 -23.0532 -2.88101 -0.0665034 60.8496 -0.837032 -0.633428 29.583 -1.09781 1.83545 -0.707098 7.07313 -89.3253 12.7344 -1.08181 1.47661 1.06302 -1.01579 1.52278 -21.4717 -1.47557 1.08325 -1.45904 -1.47555 1.08325 91.2781 -54.4156 -97.9792 34.9287 51.5226 -46.0045 -0.0268609 -19.9752 -114.213 -4.44739 0.0660683 1.41538 -85.0942 -40.0879 84.6421 -16.1906 8.04088 -61.9729 10.1229 8.10613 -110.272 17.0413 1.92926 1.0166 -21.4836 -13.4212 -10.6232 -4.61846 -14.1222 -9.33331 
28.3702 89.8992 101.111 95.3588 -31.3902 94.1349 -168.392 8.04148 99.998 -36.2455 22.4659 -2.96652 64.6893 5.99483 21.1687 36.5892 5.90684 8.10193 172.451 16.3274 80.8131 -23.1905 -2.69968 -0.110621 61.0346 -0.976207 -0.571855 29.3805 -1.02334 1.93596 -0.698399 7.07439 -89.3358 12.7309 -1.06957 1.45416 1.05949 -1.00453 1.4998 -21.4753 -1.45714 1.06551 -1.46262 -1.45715 1.0655 91.2532 -54.404 -98.0178 35.0512 51.8178 -46.2206 -0.463258 -20.1038 -114.354 -4.89222 -0.0460525 1.55284 -85.1071 -40.1201 84.6253 -17.4284 6.80388 -61.8941 9.72379 10.2972 -110.473 16.7805 1.86828 1.32317 -21.4688 -13.4406 -10.5633 -4.52679 -14.1444 -9.28952 
28.3623 89.8936 101.129 95.3779 -31.4275 94.1421 -168.432 8.00056 99.9566 -36.2866 22.3205 -2.91922 64.74 6.03218 20.7213 36.5482 5.73062 8.32976 172.445 16.2218 80.8707 -22.9608 -2.35969 -0.102271 61.0654 -1.05148 -0.610661 30.0191 -1.40868 2.05603 -0.684333 7.08451 -89.3659 12.7101 -1.0561 1.39209 1.03875 -0.993815 1.4372 -21.4963 -1.42565 1.01035 -1.48365 -1.42565 1.01035 90.9919 -54.4153 -98.397 34.5842 52.1336 -46.1857 -0.85827 -19.9052 -114.595 -4.7203 0.0258409 1.80333 -85.1926 -40.325 84.514 -16.203 8.13653 -62.1066 10.0036 8.10172 -110.237 14.7425 1.45278 2.95973 -21.4307 -13.4962 -10.3594 -4.4589 -14.1916 -9.33673 
28.3759 89.9025 101.137 95.3279 -31.4334 94.1466 -168.399 8.07724 99.9926 -36.3209 22.3286 -2.94828 64.6917 5.8943 20.7975 36.5334 5.80394 8.14812 172.426 16.2268 80.9101 -22.8209 -2.14351 -0.0682698 61.0516 -1.05749 -0.640025 30.0054 -1.46578 2.24472 -0.63927 7.10885 -89.3729 12.6607 -0.970358 1.36706 0.989376 -0.909263 1.40843 -21.5451 -1.33634 1.01226 -1.5325 -1.33635 1.01225 91.3035 -54.2849 -97.9672 34.8273 52.049 -46.3833 -0.90847 -19.9898 -115.012 -5.28128 -0.0722358 2.51393 -85.4685 -40.4221 84.0637 -12.7131 11.2248 -63.1218 10.0453 3.14947 -108.672 14.7066 1.48676 2.29159 -21.5589 -13.6799 -10.8298 -4.05314 -14.4446 -9.2204 
28.35 89.897 101.158 95.3049 -31.4756 94.1355 -168.386 8.107 99.991 -36.2902 21.9671 -2.95274 64.6729 5.82961 20.6832 36.7674 6.14009 8.13572 172.468 16.3138 80.9241 -23.0338 -2.54634 -0.0806634 61.0266 -0.988956 -0.832196 29.9424 -1.44484 2.28168 -0.603079 7.13295 -89.4112 12.612 -0.917042 1.28352 0.940734 -0.859661 1.32263 -21.5939 -1.26037 0.948604 -1.58126 -1.26038 0.9486 91.5353 -53.5597 -97.7653 35.8145 52.5091 -46.9151 -2.34816 -19.9481 -116.092 -6.06641 -0.191772 3.82061 -85.7529 -40.7886 83.6474 -13.2353 10.3533 -63.4115 9.85427 4.23556 -108.56 15.2612 1.60641 1.83944 -21.3061 -13.9075 -10.586 -3.94899 -14.6424 -9.33959 
28.3624 89.8898 101.16 95.321 -31.4128 94.1607 -168.386 8.09569 100.011 -36.2707 22.114 -2.94416 64.6885 5.89126 20.8795 36.6131 6.01938 7.94866 172.437 16.2922 80.8957 -23.0665 -2.74508 -0.0602689 61.0086 -0.975397 -0.789269 30.1374 -1.47532 2.06594 -0.557282 7.1721 -89.4411 12.5331 -0.840882 1.21384 0.861845 -0.786657 1.24966 -21.6727 -1.1668 0.90502 -1.66003 -1.16681 0.905024 91.8892 -53.0556 -97.3362 36.7075 52.9414 -47.5889 -4.58566 -19.3931 -117.427 -5.91045 -0.0193758 5.342 -86.1561 -41.1332 83.0335 -13.343 9.49093 -64.0398 9.36216 5.33074 -108.284 14.9329 1.52971 2.21737 -20.9885 -14.1328 -10.6069 -3.89691 -14.8392 -9.39137 
